Coordinates
version=1
nRows=16
nColumns=40
inDegrees=yes

Units are S.I. units (second, meters, Newtons, ...)
If the header above contains a line with 'inDegrees', this indicates whether rotational values are in degrees (yes) or radians (no).

endheader
time	pelvis_tilt	pelvis_list	pelvis_rotation	pelvis_tx	pelvis_ty	pelvis_tz	hip_flexion_r	hip_adduction_r	hip_rotation_r	knee_angle_r	knee_angle_r_beta	ankle_angle_r	subtalar_angle_r	mtp_angle_r	hip_flexion_l	hip_adduction_l	hip_rotation_l	knee_angle_l	knee_angle_l_beta	ankle_angle_l	subtalar_angle_l	mtp_angle_l	lumbar_extension	lumbar_bending	lumbar_rotation	arm_flex_r	arm_add_r	arm_rot_r	elbow_flex_r	pro_sup_r	wrist_flex_r	wrist_dev_r	arm_flex_l	arm_add_l	arm_rot_l	elbow_flex_l	pro_sup_l	wrist_flex_l	wrist_dev_l
      0.89500000	      2.76200425	      0.34209673	      4.13276533	      0.61220801	      0.94908803	      0.16524393	     17.38266675	    -11.86540252	    -21.16217824	     56.90867468	      0.99324375	     -4.18447180	    -15.80691380	      0.00000000	     -3.69804719	      0.83272297	    -16.58643754	      8.25215852	      0.14402734	      4.04911280	      5.82016943	      0.00000000	      0.00000000	      0.00000000	      0.00000000	     44.14565853	    -15.89624708	     44.14565853	     75.10271355	     44.99375446	      0.00000000	      0.00000000	     44.14565853	    -15.89624708	     44.14565853	     75.10271355	     44.99375446	      0.00000000	      0.00000000
      0.90000000	      2.60912292	      0.62512379	      4.22469502	      0.61804735	      0.94863879	      0.16520586	     18.13435226	    -12.01804521	    -21.14463568	     55.89671448	      0.97558171	     -3.87495357	    -15.62509438	      0.00000000	     -4.02083107	      1.12930944	    -16.62165200	      8.12639462	      0.14183234	      4.20704478	      6.00522190	      0.00000000	      0.00000000	      0.00000000	      0.00000000	     44.14586812	    -15.89588370	     44.14586812	     75.10263211	     44.99376822	      0.00000000	      0.00000000	     44.14586812	    -15.89588370	     44.14586812	     75.10263211	     44.99376822	      0.00000000	      0.00000000
      0.90500000	      2.54645637	      0.70865220	      4.36503923	      0.62423930	      0.94840435	      0.16496885	     18.62666156	    -11.95576168	    -21.24800684	     54.67218400	      0.95420962	     -3.20580414	    -14.82489517	      0.00000000	     -4.55596490	      1.22602937	    -16.52899671	      7.76508229	      0.13552625	      4.28862614	      6.40330377	      0.00000000	      0.00000000	      0.00000000	      0.00000000	     44.14732778	    -15.89335414	     44.14732778	     75.10206600	     44.99386336	      0.00000000	      0.00000000	     44.14732778	    -15.89335414	     44.14732778	     75.10206600	     44.99386336	      0.00000000	      0.00000000
      0.91000000	      2.37658794	      1.04746039	      4.47441213	      0.63010425	      0.94779318	      0.16491456	     19.33295004	    -12.17425574	    -21.23196188	     53.54343215	      0.93450918	     -2.96851882	    -14.63504942	      0.00000000	     -4.85510875	      1.57872381	    -16.52425612	      7.66302982	      0.13374510	      4.46154445	      6.57775817	      0.00000000	      0.00000000	      0.00000000	      0.00000000	     44.14752602	    -15.89301087	     44.14752602	     75.10198931	     44.99387618	      0.00000000	      0.00000000	     44.14752602	    -15.89301087	     44.14752602	     75.10198931	     44.99387618	      0.00000000	      0.00000000
      0.91500000	      2.44630333	      0.84157967	      4.99406770	      0.63641937	      0.94796918	      0.16379798	     19.35246259	    -11.89109071	    -21.84040943	     51.86326480	      0.90518473	     -2.58454327	    -13.87231360	      0.00000000	     -5.50709148	      1.35035778	    -15.94124090	      7.28510967	      0.12714915	      4.50566242	      6.81633969	      0.00000000	      0.00000000	      0.00000000	      0.00000000	     44.15163852	    -15.88590073	     44.15163852	     75.10040715	     44.99413661	      0.00000000	      0.00000000	     44.15163852	    -15.88590073	     44.15163852	     75.10040715	     44.99413661	      0.00000000	      0.00000000
      0.92000000	      2.25446663	      1.25267074	      5.08085219	      0.64233533	      0.94718424	      0.16379436	     20.02830209	    -12.18436343	    -21.78041013	     50.63860311	      0.88381035	     -2.37753788	    -13.65213982	      0.00000000	     -5.78804527	      1.77774198	    -15.96329493	      7.20331060	      0.12572149	      4.69799589	      6.97656863	      0.00000000	      0.00000000	      0.00000000	      0.00000000	     44.15182817	    -15.88557343	     44.15182817	     75.10033461	     44.99414839	      0.00000000	      0.00000000	     44.15182817	    -15.88557343	     44.15182817	     75.10033461	     44.99414839	      0.00000000	      0.00000000
      0.92500000	      2.03999129	      1.59499264	      5.14630008	      0.64824782	      0.94635211	      0.16389471	     20.70035364	    -12.38481920	    -21.71293475	     49.33955762	      0.86113773	     -2.08858048	    -13.23251441	      0.00000000	     -6.06441521	      2.12993134	    -15.89276820	      7.06608711	      0.12332649	      4.80622916	      7.23262867	      0.00000000	      0.00000000	      0.00000000	      0.00000000	     44.15209075	    -15.88512032	     44.15209075	     75.10023423	     44.99416466	      0.00000000	      0.00000000	     44.15209075	    -15.88512032	     44.15209075	     75.10023423	     44.99416466	      0.00000000	      0.00000000
      0.93000000	      2.12222202	      1.45970324	      5.63765998	      0.65467940	      0.94638377	      0.16287283	     20.60037035	    -12.17725951	    -22.31901789	     47.48793643	      0.82882085	     -1.72304949	    -12.36359472	      0.00000000	     -6.73115699	      1.94437765	    -15.40868607	      6.72202089	      0.11732140	      4.74376470	      7.52454121	      0.00000000	      0.00000000	      0.00000000	      0.00000000	     44.15441924	    -15.88110561	     44.15441924	     75.09934680	     44.99430725	      0.00000000	      0.00000000	     44.15441924	    -15.88110561	     44.15441924	     75.09934680	     44.99430725	      0.00000000	      0.00000000
      0.93500000	      1.90951722	      1.85134751	      5.71611196	      0.66064293	      0.94540579	      0.16295613	     21.20339429	    -12.45288605	    -22.31140003	     46.10466969	      0.80467829	     -1.59393417	    -12.02640191	      0.00000000	     -6.99947399	      2.34581496	    -15.34240802	      6.63693205	      0.11583632	      5.01475960	      7.63933660	      0.00000000	      0.00000000	      0.00000000	      0.00000000	     44.15482877	    -15.88040030	     44.15482877	     75.09919130	     44.99433200	      0.00000000	      0.00000000	     44.15482877	    -15.88040030	     44.15482877	     75.09919130	     44.99433200	      0.00000000	      0.00000000
      0.94000000	      2.03120080	      1.64962770	      6.27383399	      0.66691593	      0.94543293	      0.16176493	     20.97152473	    -12.17306415	    -23.03369908	     44.06088649	      0.76900754	     -1.61395773	    -11.51399198	      0.00000000	     -7.63668344	      2.06118889	    -14.78101553	      6.41759890	      0.11200823	      5.11733358	      7.74627511	      0.00000000	      0.00000000	      0.00000000	      0.00000000	     44.15794492	    -15.87504073	     44.15794492	     75.09801365	     44.99451717	      0.00000000	      0.00000000	     44.15794492	    -15.87504073	     44.15794492	     75.09801365	     44.99451717	      0.00000000	      0.00000000
      0.94500000	      1.78342303	      2.15500421	      6.33599444	      0.67286555	      0.94427143	      0.16191457	     21.58852283	    -12.57264787	    -22.96592713	     42.65451323	      0.74446170	     -1.50070752	    -11.16465392	      0.00000000	     -7.86556623	      2.57722517	    -14.72807422	      6.36973786	      0.11117290	      5.31018620	      7.92849541	      0.00000000	      0.00000000	      0.00000000	      0.00000000	     44.15820215	    -15.87459892	     44.15820215	     75.09791689	     44.99453222	      0.00000000	      0.00000000	     44.15820215	    -15.87459892	     44.15820215	     75.09791689	     44.99453222	      0.00000000	      0.00000000
      0.95000000	      1.51807126	      2.58309898	      6.39009276	      0.67894891	      0.94308300	      0.16202978	     22.17105826	    -12.89507068	    -22.97513293	     41.16017821	      0.71838063	     -1.35957483	    -10.70246583	      0.00000000	     -8.09359466	      3.01436086	    -14.69045522	      6.28977515	      0.10977729	      5.44582010	      8.10807266	      0.00000000	      0.00000000	      0.00000000	      0.00000000	     44.15850042	    -15.87408675	     44.15850042	     75.09780477	     44.99454961	      0.00000000	      0.00000000	     44.15850042	    -15.87408675	     44.15850042	     75.09780477	     44.99454961	      0.00000000	      0.00000000
      0.95500000	      1.27350038	      2.98209673	      6.45859406	      0.68501810	      0.94190519	      0.16210438	     22.69112801	    -13.19135990	    -23.03718989	     39.61710110	      0.69144885	     -1.25330462	    -10.20909312	      0.00000000	     -8.33816589	      3.41562976	    -14.63695307	      6.20951360	      0.10837646	      5.59259003	      8.27965643	      0.00000000	      0.00000000	      0.00000000	      0.00000000	     44.15880279	    -15.87356764	     44.15880279	     75.09769119	     44.99456720	      0.00000000	      0.00000000	     44.15880279	    -15.87356764	     44.15880279	     75.09769119	     44.99456720	      0.00000000	      0.00000000
      0.96000000	      1.03325552	      3.38080654	      6.55443120	      0.69112344	      0.94069378	      0.16210442	     23.17464933	    -13.48948266	    -23.11815419	     38.02794891	      0.66371292	     -1.19009517	     -9.69182220	      0.00000000	     -8.58879565	      3.81352973	    -14.56962646	      6.13410277	      0.10706029	      5.74500133	      8.45856671	      0.00000000	      0.00000000	      0.00000000	      0.00000000	     44.15908353	    -15.87308578	     44.15908353	     75.09758582	     44.99458349	      0.00000000	      0.00000000	     44.15908353	    -15.87308578	     44.15908353	     75.09758582	     44.99458349	      0.00000000	      0.00000000
      0.96500000	      1.46443992	      2.51893489	      7.50690652	      0.69771462	      0.94154824	      0.15989117	     22.03224812	    -12.52729598	    -24.58449756	     35.12624788	      0.61306868	     -1.69239773	     -9.14402346	      0.00000000	     -9.47417638	      2.70059387	    -13.73799418	      5.96837119	      0.10416773	      5.90558999	      8.61642104	      0.00000000	      0.00000000	      0.00000000	      0.00000000	     44.16271710	    -15.86685832	     44.16271710	     75.09622917	     44.99479027	      0.00000000	      0.00000000	     44.16271710	    -15.86685832	     44.16271710	     75.09622917	     44.99479027	      0.00000000	      0.00000000
      0.97000000	      1.16533197	      3.07370958	      7.51713965	      0.70376270	      0.94006337	      0.16014618	     22.63521539	    -13.00941676	    -24.60887771	     33.68241712	      0.58786908	     -1.65052065	     -8.65178194	      0.00000000	     -9.67580420	      3.27088090	    -13.72869296	      5.91611847	      0.10325575	      6.08189431	      8.80945136	      0.00000000	      0.00000000	      0.00000000	      0.00000000	     44.16299375	    -15.86638493	     44.16299375	     75.09612641	     44.99480573	      0.00000000	      0.00000000	     44.16299375	    -15.86638493	     44.16299375	     75.09612641	     44.99480573	      0.00000000	      0.00000000
